<svg width="1920" height="686" viewBox="0 0 1920 686" fill="none" xmlns="http://www.w3.org/2000/svg">
<g clip-path="url(#clip0_5065_86004)">
<path fill-rule="evenodd" clip-rule="evenodd" d="M1367.74 570.323C1235.51 626.002 1106.92 670.785 990.621 706.429C837.625 753.321 704.035 784.952 608.47 804.901C560.653 814.883 522.26 821.959 495.607 826.572C482.278 828.879 471.876 830.571 464.692 831.703C461.099 832.269 458.31 832.694 456.36 832.987C455.386 833.134 454.621 833.247 454.07 833.328L453.405 833.425L-1397.57 1099.68L-1427.88 888.958L422.814 622.74L422.826 622.738L422.84 622.736L422.844 622.736L422.859 622.733L422.874 622.731L423.166 622.689L423.901 622.58L424.73 622.456C426.191 622.236 428.481 621.887 431.565 621.401C437.733 620.43 447.075 618.912 459.303 616.796C483.764 612.563 519.746 605.938 564.966 596.499C655.477 577.605 782.616 547.512 928.236 502.881C1221.11 413.119 1581.36 266.753 1869.72 39.9559L2660.04 -581.644L2660.16 -581.49L1869.84 40.1095C1673.46 194.57 1505.63 383.726 1367.74 570.323Z" fill="url(#paint0_linear_5065_86004)"/>
<path fill-rule="evenodd" clip-rule="evenodd" d="M1367.14 570.468C1281.87 685.861 1208.05 800.275 1146.01 904.9C1064.39 1042.54 1002.17 1164.92 960.265 1253.09C939.297 1297.21 923.373 1332.85 912.61 1357.67C907.227 1370.08 903.132 1379.79 900.339 1386.5C898.943 1389.86 897.872 1392.47 897.128 1394.3C896.756 1395.21 896.465 1395.93 896.257 1396.44L896.006 1397.07L201.105 3133.19L398.754 3212.3L1093.55 1476.44L1093.56 1476.43L1093.56 1476.42L1093.56 1476.41L1093.57 1476.4L1093.57 1476.38L1093.68 1476.11L1093.96 1475.42L1094.28 1474.64C1094.84 1473.28 1095.71 1471.13 1096.91 1468.25C1099.31 1462.48 1102.99 1453.76 1107.92 1442.38C1117.8 1419.6 1132.72 1386.2 1152.55 1344.47C1192.24 1260.96 1251.44 1144.49 1329.13 1013.49C1485.37 750.016 1712.5 434.389 2000.86 207.592L2791.17 -414.008L2791.05 -414.162L2000.74 207.438C1804.35 361.899 1580.98 480.431 1367.14 570.468Z" fill="url(#paint1_linear_5065_86004)"/>
<g style="mix-blend-mode:multiply">
<path fill-rule="evenodd" clip-rule="evenodd" d="M2659.5 -581.422L1869.18 40.1771C1672.8 194.639 1504.97 383.795 1367.08 570.393C1580.91 480.356 1804.29 361.824 2000.68 207.362L2790.99 -414.237L2659.5 -581.422Z" fill="#151F6D"/>
</g>
</g>
<defs>
<linearGradient id="paint0_linear_5065_86004" x1="1860.24" y1="51.1971" x2="-891.496" y2="865.853" gradientUnits="userSpaceOnUse">
<stop offset="0.147804" stop-color="#0545F5"/>
<stop offset="0.272964" stop-color="#0545F5" stop-opacity="0.75"/>
</linearGradient>
<linearGradient id="paint1_linear_5065_86004" x1="1931.06" y1="323.987" x2="824.755" y2="2055.5" gradientUnits="userSpaceOnUse">
<stop stop-color="#FF8200"/>
<stop offset="1" stop-color="#FF8200" stop-opacity="0.75"/>
</linearGradient>
<clipPath id="clip0_5065_86004">
<rect width="1920" height="686" fill="white"/>
</clipPath>
</defs>
</svg>
