<svg width="1179" height="1080" viewBox="0 0 1179 1080" fill="none" xmlns="http://www.w3.org/2000/svg">
<mask id="mask0_5065_86021" style="mask-type:alpha" maskUnits="userSpaceOnUse" x="0" y="0" width="1179" height="1081">
<rect y="0.000244141" width="1179" height="1080" fill="url(#paint0_linear_5065_86021)"/>
</mask>
<g mask="url(#mask0_5065_86021)">
<path d="M353.681 453.704C389.33 614.504 475.385 751.061 591.509 850.561C538.139 912.868 492.934 981.741 456.703 1055.29C289.808 921.218 165.575 731.731 115.637 506.477L-200.391 -919.035" stroke="#E6F4FF" stroke-width="2" stroke-miterlimit="10"/>
<path d="M591.767 400.922C617.963 519.087 685.193 617.411 774.91 684.833C706.52 732.402 644.952 788.194 591.508 850.561C475.384 751.061 389.329 614.504 353.681 453.704L37.6523 -971.809" stroke="#E6F4FF" stroke-width="2" stroke-miterlimit="10"/>
<path d="M1120.68 533.455C992.652 561.839 876.275 614.302 774.912 684.836C685.196 617.414 617.966 519.09 591.769 400.925L275.741 -1024.59" stroke="#E6F4FF" stroke-width="2" stroke-miterlimit="10"/>
<path d="M617.575 1644.05C581.927 1483.25 602.207 1323.12 665.4 1183.87C590.699 1149.95 520.623 1106.64 456.704 1055.29C362.106 1247.33 329.593 1471.57 379.531 1696.83L926.713 4165.01" stroke="#E6F4FF" stroke-width="2" stroke-miterlimit="10"/>
<path d="M591.51 850.563C654.843 904.802 727.166 947.97 805.097 978.054C747.182 1038.25 699.878 1107.94 665.402 1183.87C590.7 1149.95 520.624 1106.64 456.705 1055.29C492.935 981.742 538.14 912.87 591.51 850.563Z" stroke="#E6F4FF" stroke-width="2" stroke-miterlimit="10"/>
<path d="M1173.45 771.497C1027.49 803.856 901.543 877.824 805.097 978.054C727.166 947.969 654.842 904.801 591.509 850.562C644.954 788.195 706.521 732.403 774.911 684.834C884.839 767.465 1028.66 803.597 1173.45 771.497Z" stroke="#E6F4FF" stroke-width="2" stroke-miterlimit="10"/>
<path d="M1173.45 771.497C1028.66 803.596 884.83 767.423 774.912 684.834C876.275 614.299 992.651 561.836 1120.68 533.453L3003.25 116.099" stroke="#E6F4FF" stroke-width="2" stroke-miterlimit="10"/>
<path d="M901.658 1256.56C819.572 1242.35 740.194 1217.8 665.4 1183.87C699.867 1107.9 747.181 1038.25 805.096 978.053C934.864 1028.13 1080.27 1041.94 1226.23 1009.58C1081.44 1041.68 966.374 1135.25 901.658 1256.56Z" stroke="#E6F4FF" stroke-width="2" stroke-miterlimit="10"/>
<path d="M1226.24 1009.58C1080.27 1041.94 934.866 1028.13 805.097 978.053C901.543 877.823 1027.49 803.855 1173.45 771.497L3056.02 354.142" stroke="#E6F4FF" stroke-width="2" stroke-miterlimit="10"/>
<path d="M3161.58 830.313L1279.06 1247.66C1151.03 1276.04 1023.39 1277.68 901.71 1256.59C966.417 1135.24 1081.5 1041.71 1226.29 1009.61L3108.81 592.269" stroke="#E6F4FF" stroke-width="2" stroke-miterlimit="10"/>
</g>
<defs>
<linearGradient id="paint0_linear_5065_86021" x1="0" y1="0.000244141" x2="589" y2="848" gradientUnits="userSpaceOnUse">
<stop offset="0.496172" stop-color="#D9D9D9" stop-opacity="0"/>
<stop offset="1" stop-color="#D9D9D9" stop-opacity="0.24"/>
</linearGradient>
</defs>
</svg>
